ffmpeg started on 2016-11-24 at 13:12:38
Report written to "Output/NVENCh264/results/ffmpeg/old_town_cross_2160p50hp6000k.log"
Command line:
Tools/ffmpeg/ffmpeg -benchmark -y -i Input/y4m/old_town_cross_2160p50.y4m -c:v h264_nvenc -preset hp -b:v 6000k -an Output/NVENCh264/encoded/old_town_cross_2160p50hp6000k.mkv
ffmpeg version N-82227-gdb23fde Copyright (c) 2000-2016 the FFmpeg developers
  built with gcc 5.4.0 (Ubuntu 5.4.0-6ubuntu1~16.04.2) 20160609
  configuration: --prefix=/home/jaroslav/ffmpeg_build --pkg-config-flags=--static --extra-cflags=-I/home/jaroslav/ffmpeg_build/include --extra-ldflags=-L/home/jaroslav/ffmpeg_build/lib --bindir=/home/jaroslav/bin --enable-gpl --enable-libass --enable-libfdk-aac --enable-libfreetype --enable-libmp3lame --enable-libopus --enable-libtheora --enable-libvorbis --enable-libvpx --enable-libx264 --enable-libx265 --enable-nvenc --enable-libmfx --enable-libxvid --enable-libgsm --enable-libopencore-amrnb --enable-version3 --enable-nonfree
  libavutil      55. 35.100 / 55. 35.100
  libavcodec     57. 66.101 / 57. 66.101
  libavformat    57. 57.100 / 57. 57.100
  libavdevice    57.  2.100 / 57.  2.100
  libavfilter     6. 66.100 /  6. 66.100
  libswscale      4.  3.100 /  4.  3.100
  libswresample   2.  4.100 /  2.  4.100
  libpostproc    54.  2.100 / 54.  2.100
Input #0, yuv4mpegpipe, from 'Input/y4m/old_town_cross_2160p50.y4m':
  Duration: 00:00:10.00, start: 0.000000, bitrate: 4976642 kb/s
    Stream #0:0: Video: rawvideo (I420 / 0x30323449), yuv420p(progressive), 3840x2160, SAR 1:1 DAR 16:9, 50 fps, 50 tbr, 50 tbn, 50 tbc
Output #0, matroska, to 'Output/NVENCh264/encoded/old_town_cross_2160p50hp6000k.mkv':
  Metadata:
    encoder         : Lavf57.57.100
    Stream #0:0: Video: h264 (h264_nvenc) (Main) (H264 / 0x34363248), yuv420p, 3840x2160 [SAR 1:1 DAR 16:9], q=-1--1, 6000 kb/s, 50 fps, 1k tbn, 50 tbc
    Metadata:
      encoder         : Lavc57.66.101 h264_nvenc
    Side data:
      cpb: bitrate max/min/avg: 0/0/6000000 buffer size: 12000000 vbv_delay: -1
Stream mapping:
  Stream #0:0 -> #0:0 (rawvideo (native) -> h264 (h264_nvenc))
Press [q] to stop, [?] for help
frame=   20 fps=0.0 q=0.0 size=       0kB time=00:00:00.00 bitrate=N/A speed=   0x    frame=   38 fps= 36 q=45.0 size=       1kB time=00:00:00.14 bitrate=  41.6kbits/s speed=0.135x    frame=   56 fps= 36 q=40.0 size=       1kB time=00:00:00.50 bitrate=  11.7kbits/s speed=0.322x    frame=   74 fps= 36 q=38.0 size=       1kB time=00:00:00.86 bitrate=   6.8kbits/s speed=0.415x    frame=   92 fps= 35 q=37.0 size=       1kB time=00:00:01.22 bitrate=   4.8kbits/s speed=0.471x    frame=  110 fps= 35 q=37.0 size=       1kB time=00:00:01.58 bitrate=   3.7kbits/s speed=0.509x    frame=  128 fps= 35 q=37.0 size=       1kB time=00:00:01.94 bitrate=   3.0kbits/s speed=0.535x    frame=  146 fps= 35 q=35.0 size=       1kB time=00:00:02.30 bitrate=   2.5kbits/s speed=0.556x    frame=  164 fps= 35 q=36.0 size=       1kB time=00:00:02.66 bitrate=   2.2kbits/s speed=0.573x    frame=  182 fps= 35 q=36.0 size=       1kB time=00:00:03.02 bitrate=   1.9kbits/s speed=0.586x    frame=  200 fps= 35 q=36.0 size=       1kB time=00:00:03.38 bitrate=   1.7kbits/s speed=0.596x    frame=  218 fps= 35 q=36.0 size=       1kB time=00:00:03.74 bitrate=   1.6kbits/s speed=0.605x    frame=  236 fps= 35 q=36.0 size=       1kB time=00:00:04.10 bitrate=   1.4kbits/s speed=0.613x    frame=  254 fps= 35 q=36.0 size=       1kB time=00:00:04.46 bitrate=   1.3kbits/s speed=0.619x    frame=  272 fps= 35 q=36.0 size=       1kB time=00:00:04.82 bitrate=   1.2kbits/s speed=0.625x    frame=  290 fps= 35 q=36.0 size=    2957kB time=00:00:05.18 bitrate=4675.2kbits/s speed=0.629x    frame=  308 fps= 35 q=37.0 size=    2957kB time=00:00:05.54 bitrate=4371.5kbits/s speed=0.633x    frame=  326 fps= 35 q=38.0 size=    2957kB time=00:00:05.90 bitrate=4104.8kbits/s speed=0.637x    frame=  344 fps= 35 q=36.0 size=    2957kB time=00:00:06.26 bitrate=3868.7kbits/s speed=0.64x    frame=  362 fps= 35 q=37.0 size=    2957kB time=00:00:06.62 bitrate=3658.4kbits/s speed=0.643x    frame=  380 fps= 35 q=37.0 size=    2957kB time=00:00:06.98 bitrate=3469.7kbits/s speed=0.646x    frame=  394 fps= 34 q=37.0 size=    2957kB time=00:00:07.26 bitrate=3335.9kbits/s speed=0.633x    frame=  399 fps= 33 q=36.0 size=    2957kB time=00:00:07.36 bitrate=3290.6kbits/s speed=0.611x    frame=  405 fps= 32 q=36.0 size=    2957kB time=00:00:07.48 bitrate=3237.8kbits/s speed=0.595x    frame=  411 fps= 31 q=37.0 size=    2957kB time=00:00:07.60 bitrate=3186.7kbits/s speed=0.581x    frame=  413 fps= 30 q=36.0 size=    2957kB time=00:00:07.64 bitrate=3170.0kbits/s speed=0.553x    frame=  418 fps= 29 q=37.0 size=    2957kB time=00:00:07.74 bitrate=3129.1kbits/s speed=0.533x    frame=  421 fps= 28 q=36.0 size=    2957kB time=00:00:07.80 bitrate=3105.0kbits/s speed=0.518x    frame=  427 fps= 27 q=37.0 size=    2957kB time=00:00:07.92 bitrate=3058.0kbits/s speed=0.509x    frame=  429 fps= 26 q=37.0 size=    2957kB time=00:00:07.96 bitrate=3042.6kbits/s speed=0.49x    frame=  432 fps= 25 q=36.0 size=    2957kB time=00:00:08.02 bitrate=3019.9kbits/s speed=0.473x    frame=  438 fps= 25 q=37.0 size=    2957kB time=00:00:08.14 bitrate=2975.3kbits/s speed=0.465x    frame=  445 fps= 25 q=37.0 size=    2957kB time=00:00:08.28 bitrate=2925.0kbits/s speed=0.46x    frame=  449 fps= 24 q=36.0 size=    2957kB time=00:00:08.36 bitrate=2897.1kbits/s speed=0.445x    frame=  455 fps= 24 q=36.0 size=    2957kB time=00:00:08.48 bitrate=2856.1kbits/s speed=0.44x    frame=  464 fps= 23 q=36.0 size=    2957kB time=00:00:08.66 bitrate=2796.7kbits/s speed=0.43x    frame=  471 fps= 22 q=36.0 size=    2957kB time=00:00:08.80 bitrate=2752.2kbits/s speed=0.419x    frame=  472 fps= 22 q=36.0 size=    2957kB time=00:00:08.82 bitrate=2746.0kbits/s speed=0.407x    frame=  479 fps= 22 q=36.0 size=    2957kB time=00:00:08.96 bitrate=2703.1kbits/s speed=0.404x    frame=  486 fps= 21 q=37.0 size=    2957kB time=00:00:09.10 bitrate=2661.5kbits/s speed=0.401x    frame=  500 fps= 22 q=37.0 Lsize=    6555kB time=00:00:09.98 bitrate=5380.1kbits/s speed=0.431x    
video:6551kB audio:0kB subtitle:0kB other streams:0kB global headers:0kB muxing overhead: 0.065594%
bench: utime=1.164s
bench: maxrss=996436kB
